# This file uses centimeters as units for non-parametric coordinates.

mtllib lava2.mtl
g default
v -12.759310 -0.000000 14.131127
v -9.569482 -0.000000 14.131127
v -6.379655 -0.000000 14.131127
v -3.189827 -0.000000 14.131127
v 0.000000 -0.000000 14.131127
v 3.189828 -0.000000 14.131127
v 6.379656 -0.000000 14.131127
v 9.569482 -0.000000 14.131127
v 12.759310 -0.000000 14.131127
v -12.759310 -0.000000 10.598345
v -9.569482 3.118187 10.598345
v -6.379655 3.327810 10.598345
v -3.189827 3.274209 10.598345
v 0.000000 2.166119 10.598345
v 3.189828 3.401980 10.598345
v 6.379656 1.435378 10.598345
v 9.569482 1.343316 10.598345
v 12.759310 -0.000000 10.598345
v -12.759310 -0.000000 7.065563
v -9.569482 1.893932 7.065563
v -6.379655 2.184513 7.065563
v -3.189827 2.664782 7.065563
v 0.000000 1.919485 7.065563
v 3.189828 2.557396 7.065563
v 6.379656 3.033591 7.065563
v 9.569482 3.460805 7.065563
v 12.759310 -0.000000 7.065563
v -12.759310 -0.000000 3.532782
v -9.569482 1.714004 3.532782
v -6.379655 3.213718 3.532782
v -3.189827 1.876687 3.532782
v 0.000000 2.341802 3.532782
v 3.189828 1.467175 3.532782
v 6.379656 3.485515 3.532782
v 9.569482 2.366114 3.532782
v 12.759310 -0.000000 3.532782
v -12.759310 0.000000 0.000000
v -9.569482 2.925309 -0.000000
v -6.379655 2.612080 -0.000000
v -3.189827 1.342445 -0.000000
v 0.000000 1.758913 -0.000000
v 3.189828 1.651091 -0.000000
v 6.379656 2.500849 -0.000000
v 9.569482 1.615098 -0.000000
v 12.759310 0.000000 0.000000
v -12.759310 0.000000 -3.532783
v -9.569482 2.562975 -3.532783
v -6.379655 2.414701 -3.532783
v -3.189827 3.364290 -3.532783
v 0.000000 2.401085 -3.532783
v 3.189828 1.834430 -3.532783
v 6.379656 3.244447 -3.532783
v 9.569482 1.889963 -3.532783
v 12.759310 0.000000 -3.532783
v -12.759310 0.000000 -7.065563
v -9.569482 2.583407 -7.065563
v -6.379655 2.534929 -7.065563
v -3.189827 2.134926 -7.065563
v 0.000000 2.335330 -7.065563
v 3.189828 2.250340 -7.065563
v 6.379656 1.700123 -7.065563
v 9.569482 1.757105 -7.065563
v 12.759310 0.000000 -7.065563
v -12.759310 0.000000 -10.598344
v -9.569482 2.922714 -10.598344
v -6.379655 3.058507 -10.598344
v -3.189827 1.515196 -10.598344
v 0.000000 2.606511 -10.598344
v 3.189828 1.379980 -10.598344
v 6.379656 3.196877 -10.598344
v 9.569482 3.476758 -10.598344
v 12.759310 0.000000 -10.598344
v -12.759310 0.000000 -14.131127
v -9.569482 0.000000 -14.131127
v -6.379655 0.000000 -14.131127
v -3.189827 0.000000 -14.131127
v 0.000000 0.000000 -14.131127
v 3.189828 0.000000 -14.131127
v 6.379656 0.000000 -14.131127
v 9.569482 0.000000 -14.131127
v 12.759310 0.000000 -14.131127
vt 0.000000 0.000000
vt 0.112865 0.000000
vt 0.225731 0.000000
vt 0.338596 0.000000
vt 0.451461 0.000000
vt 0.564326 0.000000
vt 0.677192 0.000000
vt 0.790057 0.000000
vt 0.902922 0.000000
vt 0.000000 0.125000
vt 0.112865 0.125000
vt 0.225731 0.125000
vt 0.338596 0.125000
vt 0.451461 0.125000
vt 0.564326 0.125000
vt 0.677192 0.125000
vt 0.790057 0.125000
vt 0.902922 0.125000
vt 0.000000 0.250000
vt 0.112865 0.250000
vt 0.225731 0.250000
vt 0.338596 0.250000
vt 0.451461 0.250000
vt 0.564326 0.250000
vt 0.677192 0.250000
vt 0.790057 0.250000
vt 0.902922 0.250000
vt 0.000000 0.375000
vt 0.112865 0.375000
vt 0.225731 0.375000
vt 0.338596 0.375000
vt 0.451461 0.375000
vt 0.564326 0.375000
vt 0.677192 0.375000
vt 0.790057 0.375000
vt 0.902922 0.375000
vt 0.000000 0.500000
vt 0.112865 0.500000
vt 0.225731 0.500000
vt 0.338596 0.500000
vt 0.451461 0.500000
vt 0.564326 0.500000
vt 0.677192 0.500000
vt 0.790057 0.500000
vt 0.902922 0.500000
vt 0.000000 0.625000
vt 0.112865 0.625000
vt 0.225731 0.625000
vt 0.338596 0.625000
vt 0.451461 0.625000
vt 0.564326 0.625000
vt 0.677192 0.625000
vt 0.790057 0.625000
vt 0.902922 0.625000
vt 0.000000 0.750000
vt 0.112865 0.750000
vt 0.225731 0.750000
vt 0.338596 0.750000
vt 0.451461 0.750000
vt 0.564326 0.750000
vt 0.677192 0.750000
vt 0.790057 0.750000
vt 0.902922 0.750000
vt 0.000000 0.875000
vt 0.112865 0.875000
vt 0.225731 0.875000
vt 0.338596 0.875000
vt 0.451461 0.875000
vt 0.564326 0.875000
vt 0.677192 0.875000
vt 0.790057 0.875000
vt 0.902922 0.875000
vt 0.000000 1.000000
vt 0.112865 1.000000
vt 0.225731 1.000000
vt 0.338596 1.000000
vt 0.451461 1.000000
vt 0.564326 1.000000
vt 0.677192 1.000000
vt 0.790057 1.000000
vt 0.902922 1.000000
vn 0.000000 1.000000 0.000000
vn -0.229370 0.810587 0.538831
vn -0.552406 0.817828 0.161262
vn -0.403243 0.886178 0.228217
vn -0.006872 0.736355 0.676560
vn -0.041670 0.950114 0.309107
vn 0.057208 0.765885 0.640427
vn 0.159824 0.927306 0.338468
vn 0.000000 0.852508 0.522714
vn -0.009311 0.939098 0.343524
vn 0.053467 0.812293 0.580794
vn 0.017370 0.926035 0.377038
vn 0.005983 0.928752 0.370654
vn 0.222667 0.861529 0.456276
vn 0.100994 0.957739 0.269325
vn 0.284434 0.888057 0.361182
vn 0.000000 1.000000 0.000000
vn 0.307306 0.946189 0.101433
vn -0.375629 0.914816 -0.148375
vn -0.501314 0.865197 -0.010853
vn -0.093695 0.988165 -0.121454
vn 0.073010 0.977064 -0.200038
vn -0.026237 0.999421 -0.021654
vn -0.200906 0.969956 -0.137193
vn -0.021497 0.975266 0.219988
vn 0.425545 0.889629 0.165746
vn 0.640370 0.764885 0.069837
vn -0.462374 0.875951 0.137551
vn -0.473330 0.880885 0.000000
vn 0.035539 0.991329 0.126508
vn 0.115912 0.990351 -0.075960
vn 0.009391 0.996725 -0.080316
vn -0.152891 0.969677 -0.190661
vn -0.130611 0.974072 -0.184727
vn 0.502528 0.841451 -0.198558
vn 0.563302 0.825073 -0.044117
vn -0.619584 0.783340 0.049943
vn -0.413311 0.909589 0.042691
vn 0.166564 0.985814 -0.020647
vn 0.172803 0.974025 0.146339
vn -0.004380 0.999765 0.021242
vn -0.115366 0.991984 0.051562
vn -0.039531 0.998939 -0.023620
vn 0.402793 0.914070 -0.047272
vn 0.451724 0.892158 0.000000
vn -0.369456 0.928877 -0.026253
vn -0.626349 0.779542 0.000000
vn -0.077207 0.994951 -0.064116
vn 0.083308 0.996037 0.031157
vn 0.132567 0.984917 0.111196
vn -0.062778 0.997101 0.042985
vn -0.008045 0.994539 -0.104052
vn 0.400646 0.916029 -0.019334
vn 0.488720 0.872396 0.008831
vn -0.628547 0.777771 0.001020
vn -0.384257 0.922465 0.037485
vn 0.066987 0.994527 0.080175
vn 0.036195 0.994846 -0.094722
vn -0.018105 0.999413 0.029096
vn 0.158930 0.986491 -0.039698
vn -0.038283 0.998909 0.026723
vn 0.338059 0.927160 0.161523
vn 0.482488 0.875903 0.000000
vn -0.556599 0.808016 -0.193151
vn -0.375064 0.878700 -0.295319
vn 0.152403 0.924217 -0.350138
vn 0.054171 0.915436 -0.398800
vn 0.010415 0.933626 -0.358098
vn -0.008803 0.936745 -0.349903
vn -0.268054 0.938628 -0.217080
vn 0.376328 0.905648 -0.195394
vn 0.584197 0.796248 -0.157174
vn -0.216872 0.828954 -0.515559
vn 0.000000 1.000000 0.000000
vn 0.084383 0.803204 -0.589697
vn 0.000000 0.919037 -0.394171
vn 0.009939 0.872761 -0.488047
vn 0.000000 0.931458 -0.363847
vn -0.108157 0.789380 -0.604302
vn 0.242119 0.787057 -0.567380
vn 0.000000 1.000000 0.000000
s 1
g pPlane1
usemtl initialShadingGroup
f 1/1/1 2/2/2 10/10/3
f 10/10/3 2/2/2 11/11/4
f 2/2/2 3/3/5 11/11/4
f 11/11/4 3/3/5 12/12/6
f 4/4/7 13/13/8 3/3/5
f 3/3/5 13/13/8 12/12/6
f 5/5/9 14/14/10 4/4/7
f 4/4/7 14/14/10 13/13/8
f 5/5/9 6/6/11 14/14/10
f 14/14/10 6/6/11 15/15/12
f 7/7/13 16/16/14 6/6/11
f 6/6/11 16/16/14 15/15/12
f 8/8/15 17/17/16 7/7/13
f 7/7/13 17/17/16 16/16/14
f 9/9/17 18/18/18 8/8/15
f 8/8/15 18/18/18 17/17/16
f 11/11/4 20/20/19 10/10/3
f 10/10/3 20/20/19 19/19/20
f 12/12/6 21/21/21 11/11/4
f 11/11/4 21/21/21 20/20/19
f 13/13/8 22/22/22 12/12/6
f 12/12/6 22/22/22 21/21/21
f 13/13/8 14/14/10 22/22/22
f 22/22/22 14/14/10 23/23/23
f 15/15/12 24/24/24 14/14/10
f 14/14/10 24/24/24 23/23/23
f 16/16/14 25/25/25 15/15/12
f 15/15/12 25/25/25 24/24/24
f 16/16/14 17/17/16 25/25/25
f 25/25/25 17/17/16 26/26/26
f 18/18/18 27/27/27 17/17/16
f 17/17/16 27/27/27 26/26/26
f 20/20/19 29/29/28 19/19/20
f 19/19/20 29/29/28 28/28/29
f 20/20/19 21/21/21 29/29/28
f 29/29/28 21/21/21 30/30/30
f 22/22/22 31/31/31 21/21/21
f 21/21/21 31/31/31 30/30/30
f 22/22/22 23/23/23 31/31/31
f 31/31/31 23/23/23 32/32/32
f 23/23/23 24/24/24 32/32/32
f 32/32/32 24/24/24 33/33/33
f 25/25/25 34/34/34 24/24/24
f 24/24/24 34/34/34 33/33/33
f 25/25/25 26/26/26 34/34/34
f 34/34/34 26/26/26 35/35/35
f 26/26/26 27/27/27 35/35/35
f 35/35/35 27/27/27 36/36/36
f 28/28/29 29/29/28 37/37/37
f 37/37/37 29/29/28 38/38/38
f 29/29/28 30/30/30 38/38/38
f 38/38/38 30/30/30 39/39/39
f 30/30/30 31/31/31 39/39/39
f 39/39/39 31/31/31 40/40/40
f 32/32/32 41/41/41 31/31/31
f 31/31/31 41/41/41 40/40/40
f 32/32/32 33/33/33 41/41/41
f 41/41/41 33/33/33 42/42/42
f 34/34/34 43/43/43 33/33/33
f 33/33/33 43/43/43 42/42/42
f 34/34/34 35/35/35 43/43/43
f 43/43/43 35/35/35 44/44/44
f 35/35/35 36/36/36 44/44/44
f 44/44/44 36/36/36 45/45/45
f 38/38/38 47/47/46 37/37/37
f 37/37/37 47/47/46 46/46/47
f 38/38/38 39/39/39 47/47/46
f 47/47/46 39/39/39 48/48/48
f 40/40/40 49/49/49 39/39/39
f 39/39/39 49/49/49 48/48/48
f 41/41/41 50/50/50 40/40/40
f 40/40/40 50/50/50 49/49/49
f 42/42/42 51/51/51 41/41/41
f 41/41/41 51/51/51 50/50/50
f 42/42/42 43/43/43 51/51/51
f 51/51/51 43/43/43 52/52/52
f 44/44/44 53/53/53 43/43/43
f 43/43/43 53/53/53 52/52/52
f 45/45/45 54/54/54 44/44/44
f 44/44/44 54/54/54 53/53/53
f 46/46/47 47/47/46 55/55/55
f 55/55/55 47/47/46 56/56/56
f 48/48/48 57/57/57 47/47/46
f 47/47/46 57/57/57 56/56/56
f 49/49/49 58/58/58 48/48/48
f 48/48/48 58/58/58 57/57/57
f 49/49/49 50/50/50 58/58/58
f 58/58/58 50/50/50 59/59/59
f 51/51/51 60/60/60 50/50/50
f 50/50/50 60/60/60 59/59/59
f 52/52/52 61/61/61 51/51/51
f 51/51/51 61/61/61 60/60/60
f 52/52/52 53/53/53 61/61/61
f 61/61/61 53/53/53 62/62/62
f 53/53/53 54/54/54 62/62/62
f 62/62/62 54/54/54 63/63/63
f 55/55/55 56/56/56 64/64/64
f 64/64/64 56/56/56 65/65/65
f 56/56/56 57/57/57 65/65/65
f 65/65/65 57/57/57 66/66/66
f 57/57/57 58/58/58 66/66/66
f 66/66/66 58/58/58 67/67/67
f 59/59/59 68/68/68 58/58/58
f 58/58/58 68/68/68 67/67/67
f 59/59/59 60/60/60 68/68/68
f 68/68/68 60/60/60 69/69/69
f 60/60/60 61/61/61 69/69/69
f 69/69/69 61/61/61 70/70/70
f 61/61/61 62/62/62 70/70/70
f 70/70/70 62/62/62 71/71/71
f 63/63/63 72/72/72 62/62/62
f 62/62/62 72/72/72 71/71/71
f 65/65/65 74/74/73 64/64/64
f 64/64/64 74/74/73 73/73/74
f 66/66/66 75/75/75 65/65/65
f 65/65/65 75/75/75 74/74/73
f 66/66/66 67/67/67 75/75/75
f 75/75/75 67/67/67 76/76/76
f 68/68/68 77/77/77 67/67/67
f 67/67/67 77/77/77 76/76/76
f 68/68/68 69/69/69 77/77/77
f 77/77/77 69/69/69 78/78/78
f 70/70/70 79/79/79 69/69/69
f 69/69/69 79/79/79 78/78/78
f 71/71/71 80/80/80 70/70/70
f 70/70/70 80/80/80 79/79/79
f 71/71/71 72/72/72 80/80/80
f 80/80/80 72/72/72 81/81/81
