# This file uses centimeters as units for non-parametric coordinates.

mtllib lava1.mtl
g default
v 11.330228 -0.000000 14.131127
v 14.520057 -0.000000 14.131127
v 17.709882 -0.000000 14.131127
v 20.899711 -0.000000 14.131127
v 24.089538 -0.000000 14.131127
v 27.279365 -0.000000 14.131127
v 30.469194 -0.000000 14.131127
v 33.659021 -0.000000 14.131127
v 36.848850 -0.000000 14.131127
v 11.330228 -0.000000 10.598345
v 14.520057 4.477742 10.598345
v 17.709882 4.963494 10.598345
v 20.899711 5.100625 10.598345
v 24.089538 2.772690 10.598345
v 27.279365 4.822618 10.598345
v 30.469194 1.475408 10.598345
v 33.659021 3.332178 10.598345
v 36.848850 -0.000000 10.598345
v 11.330228 -0.000000 7.065563
v 14.520057 2.400281 7.065563
v 17.709882 1.966665 7.065563
v 20.899711 2.459193 7.065563
v 24.089538 2.548012 7.065563
v 27.279365 3.312680 7.065563
v 30.469194 4.687369 7.065563
v 33.659021 3.383836 7.065563
v 36.848850 -0.000000 7.065563
v 11.330228 -0.000000 3.532782
v 14.520057 2.655430 3.532782
v 17.709882 4.977885 3.532782
v 20.899711 3.105933 3.532782
v 24.089538 2.622573 3.532782
v 27.279365 3.395638 3.532782
v 30.469194 4.079537 3.532782
v 33.659021 3.929619 3.532782
v 36.848850 -0.000000 3.532782
v 11.330228 0.000000 0.000000
v 14.520057 2.652682 -0.000000
v 17.709882 4.713717 -0.000000
v 20.899711 1.760109 -0.000000
v 24.089538 3.793022 -0.000000
v 27.279365 2.500274 -0.000000
v 30.469194 3.524246 -0.000000
v 33.659021 3.376135 -0.000000
v 36.848850 0.000000 0.000000
v 11.330228 0.000000 -3.532783
v 14.520057 2.872816 -3.532783
v 17.709882 4.526273 -3.532783
v 20.899711 4.163323 -3.532783
v 24.089538 3.947472 -3.532783
v 27.279365 2.233130 -3.532783
v 30.469194 4.656000 -3.532783
v 33.659021 3.079910 -3.532783
v 36.848850 0.000000 -3.532783
v 11.330228 0.000000 -7.065563
v 14.520057 2.592172 -7.065563
v 17.709882 4.581956 -7.065563
v 20.899711 3.923247 -7.065563
v 24.089538 4.360883 -7.065563
v 27.279365 2.523767 -7.065563
v 30.469194 1.593636 -7.065563
v 33.659021 3.090802 -7.065563
v 36.848850 0.000000 -7.065563
v 11.330228 0.000000 -10.598344
v 14.520057 4.001867 -10.598344
v 17.709882 2.868138 -10.598344
v 20.899711 2.365025 -10.598344
v 24.089538 3.209465 -10.598344
v 27.279365 3.072475 -10.598344
v 30.469194 4.600798 -10.598344
v 33.659021 3.476759 -10.598344
v 36.848850 0.000000 -10.598344
v 11.330228 0.000000 -14.131127
v 14.520057 0.000000 -14.131127
v 17.709882 0.000000 -14.131127
v 20.899711 0.000000 -14.131127
v 24.089538 0.000000 -14.131127
v 27.279365 0.000000 -14.131127
v 30.469194 0.000000 -14.131127
v 33.659021 0.000000 -14.131127
v 36.848850 0.000000 -14.131127
vt 0.000000 0.000000
vt 0.112865 0.000000
vt 0.225731 0.000000
vt 0.338596 0.000000
vt 0.451461 0.000000
vt 0.564326 0.000000
vt 0.677192 0.000000
vt 0.790057 0.000000
vt 0.902922 0.000000
vt 0.000000 0.125000
vt 0.112865 0.125000
vt 0.225731 0.125000
vt 0.338596 0.125000
vt 0.451461 0.125000
vt 0.564326 0.125000
vt 0.677192 0.125000
vt 0.790057 0.125000
vt 0.902922 0.125000
vt 0.000000 0.250000
vt 0.112865 0.250000
vt 0.225731 0.250000
vt 0.338596 0.250000
vt 0.451461 0.250000
vt 0.564326 0.250000
vt 0.677192 0.250000
vt 0.790057 0.250000
vt 0.902922 0.250000
vt 0.000000 0.375000
vt 0.112865 0.375000
vt 0.225731 0.375000
vt 0.338596 0.375000
vt 0.451461 0.375000
vt 0.564326 0.375000
vt 0.677192 0.375000
vt 0.790057 0.375000
vt 0.902922 0.375000
vt 0.000000 0.500000
vt 0.112865 0.500000
vt 0.225731 0.500000
vt 0.338596 0.500000
vt 0.451461 0.500000
vt 0.564326 0.500000
vt 0.677192 0.500000
vt 0.790057 0.500000
vt 0.902922 0.500000
vt 0.000000 0.625000
vt 0.112865 0.625000
vt 0.225731 0.625000
vt 0.338596 0.625000
vt 0.451461 0.625000
vt 0.564326 0.625000
vt 0.677192 0.625000
vt 0.790057 0.625000
vt 0.902922 0.625000
vt 0.000000 0.750000
vt 0.112865 0.750000
vt 0.225731 0.750000
vt 0.338596 0.750000
vt 0.451461 0.750000
vt 0.564326 0.750000
vt 0.677192 0.750000
vt 0.790057 0.750000
vt 0.902922 0.750000
vt 0.000000 0.875000
vt 0.112865 0.875000
vt 0.225731 0.875000
vt 0.338596 0.875000
vt 0.451461 0.875000
vt 0.564326 0.875000
vt 0.677192 0.875000
vt 0.790057 0.875000
vt 0.902922 0.875000
vt 0.000000 1.000000
vt 0.112865 1.000000
vt 0.225731 1.000000
vt 0.338596 1.000000
vt 0.451461 1.000000
vt 0.564326 1.000000
vt 0.677192 1.000000
vt 0.790057 1.000000
vt 0.902922 1.000000
vn 0.000000 1.000000 0.000000
vn -0.300892 0.686369 0.662089
vn -0.675899 0.707535 0.206289
vn -0.483844 0.843196 0.234341
vn -0.018432 0.588879 0.808011
vn -0.101957 0.955347 0.277337
vn 0.096176 0.622521 0.776671
vn 0.266243 0.921010 0.284351
vn 0.000000 0.786650 0.617399
vn 0.016242 0.900733 0.434069
vn 0.100158 0.720549 0.686132
vn 0.029134 0.878957 0.476011
vn -0.104276 0.860874 0.498019
vn 0.099113 0.772855 0.626795
vn 0.242417 0.790423 0.562553
vn 0.295119 0.855716 0.425036
vn 0.000000 1.000000 0.000000
vn 0.616744 0.753422 0.227993
vn -0.401112 0.895739 -0.191729
vn -0.612279 0.790538 0.012836
vn -0.060371 0.992432 -0.106934
vn 0.021826 0.975030 -0.220999
vn -0.111377 0.993778 0.000752
vn -0.335810 0.927151 -0.166199
vn 0.076715 0.990905 0.110552
vn 0.572444 0.819192 0.035115
vn 0.742296 0.669704 0.022207
vn -0.551760 0.823347 0.132892
vn -0.639792 0.768548 0.000000
vn -0.048413 0.944518 0.324871
vn 0.223572 0.969066 0.104534
vn -0.043595 0.984381 0.170567
vn -0.158977 0.986961 -0.025180
vn -0.064579 0.993298 -0.095860
vn 0.508774 0.860782 -0.014255
vn 0.763034 0.646016 -0.021044
vn -0.648152 0.761441 0.010278
vn -0.600359 0.799534 0.017734
vn 0.043401 0.998852 0.020277
vn 0.188308 0.981011 0.046448
vn -0.084917 0.996385 -0.002386
vn 0.040862 0.986404 -0.159181
vn -0.131949 0.990982 -0.023315
vn 0.495459 0.864612 -0.083461
vn 0.726878 0.686766 0.000000
vn -0.581442 0.813555 -0.007303
vn -0.669218 0.743066 0.000000
vn -0.188810 0.981580 -0.029181
vn 0.206219 0.954692 0.214561
vn 0.185690 0.972464 0.140832
vn 0.009546 0.995987 -0.088991
vn -0.109749 0.968606 -0.223064
vn 0.483869 0.867791 -0.113176
vn 0.704825 0.709282 -0.011863
vn -0.641934 0.766643 -0.013372
vn -0.624390 0.775767 0.091226
vn -0.085773 0.989041 -0.120172
vn 0.026633 0.977472 -0.209377
vn 0.204682 0.973980 -0.097300
vn 0.345736 0.936769 0.054131
vn -0.185323 0.979041 0.084462
vn 0.315718 0.935254 0.160070
vn 0.695871 0.718166 0.000000
vn -0.645600 0.733987 -0.210865
vn -0.429232 0.850329 -0.304467
vn 0.216145 0.819705 -0.530438
vn -0.036863 0.846922 -0.530438
vn -0.016557 0.875751 -0.482479
vn -0.112650 0.941202 -0.318509
vn -0.176263 0.959393 -0.220220
vn 0.523931 0.787227 -0.325222
vn 0.619538 0.752641 -0.222945
vn -0.278874 0.728353 -0.625884
vn 0.000000 1.000000 0.000000
vn 0.071493 0.750758 -0.656697
vn 0.000000 0.830981 -0.556301
vn -0.036246 0.770367 -0.636569
vn 0.000000 0.754554 -0.656238
vn -0.061440 0.648628 -0.758622
vn 0.275265 0.734836 -0.619876
vn 0.000000 1.000000 0.000000
s 1
g pPlane2
usemtl blinn3SG
f 1/1/1 2/2/2 10/10/3
f 10/10/3 2/2/2 11/11/4
f 2/2/2 3/3/5 11/11/4
f 11/11/4 3/3/5 12/12/6
f 4/4/7 13/13/8 3/3/5
f 3/3/5 13/13/8 12/12/6
f 5/5/9 14/14/10 4/4/7
f 4/4/7 14/14/10 13/13/8
f 5/5/9 6/6/11 14/14/10
f 14/14/10 6/6/11 15/15/12
f 7/7/13 16/16/14 6/6/11
f 6/6/11 16/16/14 15/15/12
f 8/8/15 17/17/16 7/7/13
f 7/7/13 17/17/16 16/16/14
f 9/9/17 18/18/18 8/8/15
f 8/8/15 18/18/18 17/17/16
f 11/11/4 20/20/19 10/10/3
f 10/10/3 20/20/19 19/19/20
f 12/12/6 21/21/21 11/11/4
f 11/11/4 21/21/21 20/20/19
f 13/13/8 22/22/22 12/12/6
f 12/12/6 22/22/22 21/21/21
f 13/13/8 14/14/10 22/22/22
f 22/22/22 14/14/10 23/23/23
f 15/15/12 24/24/24 14/14/10
f 14/14/10 24/24/24 23/23/23
f 16/16/14 25/25/25 15/15/12
f 15/15/12 25/25/25 24/24/24
f 16/16/14 17/17/16 25/25/25
f 25/25/25 17/17/16 26/26/26
f 18/18/18 27/27/27 17/17/16
f 17/17/16 27/27/27 26/26/26
f 20/20/19 29/29/28 19/19/20
f 19/19/20 29/29/28 28/28/29
f 20/20/19 21/21/21 29/29/28
f 29/29/28 21/21/21 30/30/30
f 22/22/22 31/31/31 21/21/21
f 21/21/21 31/31/31 30/30/30
f 22/22/22 23/23/23 31/31/31
f 31/31/31 23/23/23 32/32/32
f 23/23/23 24/24/24 32/32/32
f 32/32/32 24/24/24 33/33/33
f 25/25/25 34/34/34 24/24/24
f 24/24/24 34/34/34 33/33/33
f 25/25/25 26/26/26 34/34/34
f 34/34/34 26/26/26 35/35/35
f 26/26/26 27/27/27 35/35/35
f 35/35/35 27/27/27 36/36/36
f 28/28/29 29/29/28 37/37/37
f 37/37/37 29/29/28 38/38/38
f 29/29/28 30/30/30 38/38/38
f 38/38/38 30/30/30 39/39/39
f 30/30/30 31/31/31 39/39/39
f 39/39/39 31/31/31 40/40/40
f 32/32/32 41/41/41 31/31/31
f 31/31/31 41/41/41 40/40/40
f 32/32/32 33/33/33 41/41/41
f 41/41/41 33/33/33 42/42/42
f 34/34/34 43/43/43 33/33/33
f 33/33/33 43/43/43 42/42/42
f 34/34/34 35/35/35 43/43/43
f 43/43/43 35/35/35 44/44/44
f 35/35/35 36/36/36 44/44/44
f 44/44/44 36/36/36 45/45/45
f 38/38/38 47/47/46 37/37/37
f 37/37/37 47/47/46 46/46/47
f 38/38/38 39/39/39 47/47/46
f 47/47/46 39/39/39 48/48/48
f 40/40/40 49/49/49 39/39/39
f 39/39/39 49/49/49 48/48/48
f 41/41/41 50/50/50 40/40/40
f 40/40/40 50/50/50 49/49/49
f 42/42/42 51/51/51 41/41/41
f 41/41/41 51/51/51 50/50/50
f 42/42/42 43/43/43 51/51/51
f 51/51/51 43/43/43 52/52/52
f 44/44/44 53/53/53 43/43/43
f 43/43/43 53/53/53 52/52/52
f 45/45/45 54/54/54 44/44/44
f 44/44/44 54/54/54 53/53/53
f 46/46/47 47/47/46 55/55/55
f 55/55/55 47/47/46 56/56/56
f 48/48/48 57/57/57 47/47/46
f 47/47/46 57/57/57 56/56/56
f 49/49/49 58/58/58 48/48/48
f 48/48/48 58/58/58 57/57/57
f 49/49/49 50/50/50 58/58/58
f 58/58/58 50/50/50 59/59/59
f 51/51/51 60/60/60 50/50/50
f 50/50/50 60/60/60 59/59/59
f 52/52/52 61/61/61 51/51/51
f 51/51/51 61/61/61 60/60/60
f 52/52/52 53/53/53 61/61/61
f 61/61/61 53/53/53 62/62/62
f 53/53/53 54/54/54 62/62/62
f 62/62/62 54/54/54 63/63/63
f 55/55/55 56/56/56 64/64/64
f 64/64/64 56/56/56 65/65/65
f 56/56/56 57/57/57 65/65/65
f 65/65/65 57/57/57 66/66/66
f 57/57/57 58/58/58 66/66/66
f 66/66/66 58/58/58 67/67/67
f 59/59/59 68/68/68 58/58/58
f 58/58/58 68/68/68 67/67/67
f 59/59/59 60/60/60 68/68/68
f 68/68/68 60/60/60 69/69/69
f 60/60/60 61/61/61 69/69/69
f 69/69/69 61/61/61 70/70/70
f 61/61/61 62/62/62 70/70/70
f 70/70/70 62/62/62 71/71/71
f 63/63/63 72/72/72 62/62/62
f 62/62/62 72/72/72 71/71/71
f 65/65/65 74/74/73 64/64/64
f 64/64/64 74/74/73 73/73/74
f 66/66/66 75/75/75 65/65/65
f 65/65/65 75/75/75 74/74/73
f 66/66/66 67/67/67 75/75/75
f 75/75/75 67/67/67 76/76/76
f 68/68/68 77/77/77 67/67/67
f 67/67/67 77/77/77 76/76/76
f 68/68/68 69/69/69 77/77/77
f 77/77/77 69/69/69 78/78/78
f 70/70/70 79/79/79 69/69/69
f 69/69/69 79/79/79 78/78/78
f 71/71/71 80/80/80 70/70/70
f 70/70/70 80/80/80 79/79/79
f 71/71/71 72/72/72 80/80/80
f 80/80/80 72/72/72 81/81/81
