# This file uses centimeters as units for non-parametric coordinates.

mtllib Coin.mtl
g default
v -7.648879 11.290005 -0.358146
v -1.337461 8.896399 -0.358146
v -1.750918 10.573860 -0.358146
v -2.896572 11.867038 -0.358146
v -4.511968 12.479677 -0.358146
v -6.227037 12.271431 -0.358146
v -8.451766 9.760233 -0.358146
v -8.451766 8.032566 -0.358146
v -7.648880 6.502794 -0.358146
v -4.511969 5.313120 -0.358146
v -2.896573 5.925758 -0.358146
v -1.750919 7.218935 -0.358146
v -1.750918 10.573860 0.358146
v -2.896572 11.867038 0.358146
v -4.511968 12.479677 0.358146
v -6.227037 12.271431 0.358146
v -7.648879 11.290005 0.358146
v -8.451766 9.760233 0.358146
v -8.451766 8.032566 0.358146
v -7.648880 6.502794 0.358146
v -6.227038 5.521367 0.358146
v -4.511969 5.313120 0.358146
v -2.896573 5.925758 0.358146
v -1.750919 7.218935 0.358146
v -1.337461 8.896399 0.358146
v -6.227038 5.521367 -0.358146
v -4.952495 8.897965 0.535957
v -7.479487 11.139936 -0.469466
v -1.563766 8.896399 -0.569825
v -1.951301 10.468692 -0.469466
v -3.025128 11.680792 -0.469466
v -4.539246 12.255022 -0.469466
v -6.146789 12.059832 -0.469466
v -8.232037 9.706074 -0.469466
v -8.232037 8.086724 -0.469466
v -7.479488 6.652862 -0.469466
v -4.539248 5.537775 -0.469466
v -3.025129 6.112004 -0.469466
v -1.951302 7.324105 -0.469466
v -1.951301 10.468692 0.469466
v -3.025128 11.680792 0.469466
v -4.539246 12.255022 0.469466
v -6.146789 12.059832 0.469466
v -7.479487 11.139936 0.469466
v -8.232037 9.706074 0.469466
v -8.232037 8.086724 0.469466
v -7.479488 6.652862 0.469466
v -6.146790 5.732966 0.469466
v -4.539248 5.537775 0.469466
v -3.025129 6.112004 0.469466
v -1.951302 7.324105 0.469466
v -1.563766 8.896399 0.469466
v -6.146790 5.732966 -0.469466
v -4.952154 8.897867 0.906605
vt 0.383045 0.052637
vt 0.656250 0.156250
vt 0.638353 0.083637
vt 0.588760 0.027659
vt 0.518834 0.001139
vt 0.444593 0.010154
vt 0.348290 0.118857
vt 0.348290 0.193643
vt 0.383045 0.259863
vt 0.518834 0.311361
vt 0.588760 0.284841
vt 0.638353 0.228863
vt 0.375000 0.312500
vt 0.394231 0.312500
vt 0.413462 0.312500
vt 0.432692 0.312500
vt 0.451923 0.312500
vt 0.471154 0.312500
vt 0.490385 0.312500
vt 0.509615 0.312500
vt 0.528846 0.312500
vt 0.548077 0.312500
vt 0.567308 0.312500
vt 0.586539 0.312500
vt 0.605769 0.312500
vt 0.625000 0.312500
vt 0.375000 0.688440
vt 0.394231 0.688440
vt 0.413462 0.688440
vt 0.432692 0.688440
vt 0.451923 0.688440
vt 0.471154 0.688440
vt 0.490385 0.688440
vt 0.509615 0.688440
vt 0.528846 0.688440
vt 0.548077 0.688440
vt 0.567308 0.688440
vt 0.586539 0.688440
vt 0.605769 0.688440
vt 0.625000 0.688440
vt 0.638353 0.771137
vt 0.588760 0.715159
vt 0.518834 0.688639
vt 0.444593 0.697654
vt 0.383045 0.740137
vt 0.348290 0.806357
vt 0.348290 0.881143
vt 0.383045 0.947363
vt 0.444593 0.989846
vt 0.518834 0.998861
vt 0.588760 0.972341
vt 0.638353 0.916363
vt 0.656250 0.843750
vt 0.444593 0.302346
vt 0.500000 0.837500
vt 0.638353 0.083637
vt 0.656250 0.156250
vt 0.588760 0.027659
vt 0.383045 0.052637
vt 0.518834 0.001139
vt 0.444593 0.010154
vt 0.348290 0.118857
vt 0.348290 0.193643
vt 0.444593 0.302346
vt 0.383045 0.259863
vt 0.518834 0.311361
vt 0.588760 0.284841
vt 0.638353 0.228863
vt 0.375000 0.312500
vt 0.394231 0.312500
vt 0.375000 0.688440
vt 0.394231 0.688440
vt 0.413462 0.312500
vt 0.413462 0.688440
vt 0.432692 0.312500
vt 0.432692 0.688440
vt 0.451923 0.312500
vt 0.451923 0.688440
vt 0.471154 0.312500
vt 0.471154 0.688440
vt 0.490385 0.312500
vt 0.490385 0.688440
vt 0.509615 0.312500
vt 0.509615 0.688440
vt 0.528846 0.312500
vt 0.528846 0.688440
vt 0.548077 0.312500
vt 0.548077 0.688440
vt 0.567308 0.312500
vt 0.567308 0.688440
vt 0.586539 0.312500
vt 0.586539 0.688440
vt 0.605769 0.312500
vt 0.605769 0.688440
vt 0.625000 0.312500
vt 0.625000 0.688440
vt 0.638353 0.916363
vt 0.588760 0.972341
vt 0.638353 0.771137
vt 0.444593 0.989846
vt 0.518834 0.998861
vt 0.444593 0.697654
vt 0.518834 0.688639
vt 0.383045 0.740137
vt 0.588760 0.715159
vt 0.656250 0.843750
vt 0.500000 0.837500
vt 0.383045 0.947363
vt 0.348290 0.881143
vt 0.348290 0.806357
vn 0.000000 0.000000 -1.000000
vn -0.000000 0.000000 -1.000000
vn -0.000000 -0.000000 -1.000000
vn -0.000000 0.000000 -1.000000
vn -0.000000 0.000000 -1.000000
vn 0.000000 -0.000000 -1.000000
vn -0.000000 0.000000 -1.000000
vn 0.000000 0.000000 -1.000000
vn -0.000000 0.000000 -1.000000
vn -0.000000 -0.000000 -1.000000
vn 0.000000 -0.000000 -1.000000
vn 0.000000 -0.000000 -1.000000
vn -0.000000 0.000000 -1.000000
vn 0.885456 0.464723 0.000000
vn 0.568065 0.822984 0.000000
vn 0.885456 0.464723 0.000000
vn 0.568065 0.822984 0.000000
vn 0.120537 0.992709 0.000000
vn 0.120537 0.992709 0.000000
vn -0.354605 0.935016 0.000000
vn -0.354605 0.935016 0.000000
vn -0.748511 0.663123 0.000000
vn -0.748511 0.663123 0.000000
vn -0.970942 0.239315 0.000000
vn -0.970942 0.239316 0.000000
vn -0.970942 -0.239315 0.000000
vn -0.970942 -0.239315 0.000000
vn -0.748511 -0.663123 0.000000
vn -0.748511 -0.663123 0.000000
vn -0.354605 -0.935016 0.000000
vn -0.354605 -0.935016 0.000000
vn 0.120537 -0.992709 0.000000
vn 0.120537 -0.992709 0.000000
vn 0.568065 -0.822984 0.000000
vn 0.568065 -0.822984 0.000000
vn 0.885456 -0.464723 0.000000
vn 0.885456 -0.464723 0.000000
vn 1.000000 -0.000000 0.000000
vn 1.000000 -0.000000 0.000000
vn -0.000000 -0.000000 1.000000
vn -0.000000 -0.000000 1.000000
vn 0.016900 -0.014315 0.999755
vn 0.004361 0.027976 0.999599
vn -0.000000 -0.000000 1.000000
vn -0.000000 -0.000000 1.000000
vn -0.000000 -0.000000 1.000000
vn -0.015459 -0.044993 0.998868
vn 0.000000 0.000000 1.000000
vn 0.000000 -0.000000 1.000000
vn 0.034109 0.000295 0.999418
vn -0.036875 0.032677 0.998785
vn -0.047846 0.011792 0.998785
vn -0.047834 -0.011797 0.998786
vn 0.098945 0.087657 -0.991225
vn -0.011545 0.001030 -0.999933
vn -0.002743 0.032441 -0.999470
vn -0.013856 0.002185 -0.999902
vn -0.000000 0.000000 -1.000000
vn 0.000000 -0.000000 -1.000000
vn 0.000000 0.000000 -1.000000
vn 0.000000 0.000000 -1.000000
vn -0.014650 -0.007198 -0.999867
vn -0.000000 -0.000000 -1.000000
vn 0.000000 -0.000000 -1.000000
vn 0.006140 -0.038658 -0.999234
vn 0.098944 -0.087657 -0.991225
vn 0.889789 0.456372 0.000000
vn 0.568065 0.822984 0.000000
vn 0.885456 0.464723 0.000000
vn 0.568065 0.822984 0.000000
vn 0.120537 0.992709 0.000000
vn 0.120537 0.992709 0.000000
vn -0.354605 0.935016 0.000000
vn -0.354605 0.935016 0.000000
vn -0.748511 0.663123 0.000000
vn -0.748510 0.663123 0.000000
vn -0.970942 0.239316 0.000000
vn -0.970942 0.239316 0.000000
vn -0.970942 -0.239316 0.000000
vn -0.970942 -0.239316 0.000000
vn -0.748511 -0.663123 0.000000
vn -0.748511 -0.663122 0.000000
vn -0.354605 -0.935016 0.000000
vn -0.354605 -0.935016 0.000000
vn 0.120537 -0.992709 0.000000
vn 0.120537 -0.992709 0.000000
vn 0.568065 -0.822984 0.000000
vn 0.568065 -0.822984 0.000000
vn 0.887659 -0.460501 0.000000
vn 0.887627 -0.460562 0.000000
vn 0.999992 0.004078 0.000000
vn 0.999992 -0.004047 0.000000
vn -0.000000 -0.000000 1.000000
vn -0.000000 -0.000000 1.000000
vn 0.045627 -0.036665 0.998285
vn 0.013156 0.074365 0.997144
vn -0.000000 -0.000000 1.000000
vn -0.000000 -0.000001 1.000000
vn -0.000000 -0.000000 1.000000
vn -0.039872 -0.117904 0.992224
vn 0.000000 0.000000 1.000000
vn 0.000000 -0.000000 1.000000
vn 0.088723 0.000390 0.996056
vn -0.096037 0.085103 0.991733
vn -0.124609 0.030712 0.991731
vn -0.124579 -0.030725 0.991734
s 1
g Coin
usemtl lambert8SG
f 3/3/1 2/2/2 4/4/3
f 2/2/2 1/1/4 4/4/3
f 4/4/3 1/1/4 5/5/5
f 5/5/5 1/1/4 6/6/6
f 7/7/7 1/1/4 8/8/8
f 1/1/4 26/54/9 8/8/8
f 8/8/8 26/54/9 9/9/10
f 10/10/11 26/54/9 11/11/12
f 26/54/9 2/2/2 11/11/12
f 11/11/12 2/2/2 12/12/13
s 4
f 3/13/14 4/14/15 13/27/16
f 13/27/16 4/14/15 14/28/17
f 4/14/15 5/15/18 14/28/17
f 14/28/17 5/15/18 15/29/19
f 5/15/18 6/16/20 15/29/19
f 15/29/19 6/16/20 16/30/21
f 6/16/20 1/17/22 16/30/21
f 16/30/21 1/17/22 17/31/23
f 1/17/22 7/18/24 17/31/23
f 17/31/23 7/18/24 18/32/25
f 7/18/24 8/19/26 18/32/25
f 18/32/25 8/19/26 19/33/27
f 8/19/26 9/20/28 19/33/27
f 19/33/27 9/20/28 20/34/29
f 9/20/28 26/21/30 20/34/29
f 20/34/29 26/21/30 21/35/31
f 26/21/30 10/22/32 21/35/31
f 21/35/31 10/22/32 22/36/33
f 10/22/32 11/23/34 22/36/33
f 22/36/33 11/23/34 23/37/35
f 11/23/34 12/24/36 23/37/35
f 23/37/35 12/24/36 24/38/37
f 12/24/36 2/25/38 24/38/37
f 24/38/37 2/25/38 25/39/39
f 2/25/38 3/26/14 25/39/39
f 25/39/39 3/26/14 13/40/16
s 5
f 13/52/40 14/51/41 24/41/42
f 24/41/42 14/51/41 16/49/43
f 14/51/41 15/50/44 16/49/43
f 21/44/45 22/43/46 20/45/47
f 22/43/46 23/42/48 20/45/47
f 23/42/48 24/41/42 20/45/47
f 25/53/49 13/52/40 24/41/42
s 1
f 1/1/4 2/2/2 26/54/9
s 5
f 24/41/42 16/49/43 27/55/50
f 16/49/43 17/48/51 27/55/50
f 17/48/51 18/47/52 27/55/50
f 18/47/52 19/46/53 27/55/50
f 19/46/53 20/45/47 27/55/50
f 20/45/47 24/41/42 27/55/50
s 7
f 30/56/54 29/57/55 31/58/56
f 29/57/55 28/59/57 31/58/56
f 31/58/56 28/59/57 32/60/58
f 32/60/58 28/59/57 33/61/59
f 34/62/60 28/59/57 35/63/61
f 28/59/57 53/64/62 35/63/61
f 35/63/61 53/64/62 36/65/63
f 37/66/64 53/64/62 38/67/65
f 53/64/62 29/57/55 38/67/65
f 38/67/65 29/57/55 39/68/66
s 10
f 30/69/67 31/70/68 40/71/69
f 40/71/69 31/70/68 41/72/70
f 31/70/68 32/73/71 41/72/70
f 41/72/70 32/73/71 42/74/72
f 32/73/71 33/75/73 42/74/72
f 42/74/72 33/75/73 43/76/74
f 33/75/73 28/77/75 43/76/74
f 43/76/74 28/77/75 44/78/76
f 28/77/75 34/79/77 44/78/76
f 44/78/76 34/79/77 45/80/78
f 34/79/77 35/81/79 45/80/78
f 45/80/78 35/81/79 46/82/80
f 35/81/79 36/83/81 46/82/80
f 46/82/80 36/83/81 47/84/82
f 36/83/81 53/85/83 47/84/82
f 47/84/82 53/85/83 48/86/84
f 53/85/83 37/87/85 48/86/84
f 48/86/84 37/87/85 49/88/86
f 37/87/85 38/89/87 49/88/86
f 49/88/86 38/89/87 50/90/88
f 38/89/87 39/91/89 50/90/88
f 50/90/88 39/91/89 51/92/90
f 39/91/89 29/93/91 51/92/90
f 51/92/90 29/93/91 52/94/92
f 29/93/91 30/95/67 52/94/92
f 52/94/92 30/95/67 40/96/69
s 11
f 40/97/93 41/98/94 51/99/95
f 51/99/95 41/98/94 43/100/96
f 41/98/94 42/101/97 43/100/96
f 48/102/98 49/103/99 47/104/100
f 49/103/99 50/105/101 47/104/100
f 50/105/101 51/99/95 47/104/100
f 52/106/102 40/97/93 51/99/95
s 7
f 28/59/57 29/57/55 53/64/62
s 11
f 51/99/95 43/100/96 54/107/103
f 43/100/96 44/108/104 54/107/103
f 44/108/104 45/109/105 54/107/103
f 45/109/105 46/110/106 54/107/103
f 46/110/106 47/104/100 54/107/103
f 47/104/100 51/99/95 54/107/103
