# This file uses centimeters as units for non-parametric coordinates.

mtllib fridge.mtl
g default
v -27.879921 0.000000 0.327987
v -28.216721 8.022694 0.327987
v -27.879921 5.348463 5.583574
v -27.879921 8.022694 5.583574
v -29.403479 8.169955 5.583574
v -30.927038 8.163792 5.583574
v -32.450596 8.022694 5.583574
v -33.974155 8.022694 5.583574
v -33.974155 5.348462 5.583574
v -33.974155 2.674231 5.583574
v -33.974155 0.000000 5.583574
v -33.974155 0.000000 0.327987
v -32.450596 0.000000 5.583574
v -32.450596 0.000000 2.955781
v -30.927038 0.000000 5.583574
v -30.927038 0.000000 2.955781
v -30.927038 0.000000 0.327987
v -29.403479 0.000000 5.583574
v -27.879921 0.000000 5.583574
v -29.403479 0.000000 0.327987
v -33.974155 8.022694 0.327987
v -32.450596 2.674231 5.790221
v -30.927038 2.674231 5.583574
v -29.403479 2.674231 5.790221
v -32.450596 5.348463 5.553444
v -30.927038 5.348463 5.816151
v -29.403479 5.348463 5.790221
v -28.941725 8.022694 9.386314
v -28.118273 8.022694 8.143794
v -33.623428 8.022694 5.529797
v -34.081612 8.191005 6.494740
v -34.081612 0.000000 6.494740
v -33.623428 0.000000 5.529797
v -28.118273 0.000000 8.143794
v -28.576454 0.000000 9.108738
v -31.349308 5.348463 7.405604
v -28.781771 2.660748 8.638574
v -28.781771 4.706509 8.638574
v -29.618877 4.603225 9.313890
v -29.754543 2.660748 9.359175
v -29.296362 2.660748 8.394230
v -29.497248 2.660748 9.481346
v -29.277943 2.741151 9.496987
v -29.296362 4.706509 8.394230
v -29.429501 4.032701 9.393085
v -29.288651 4.606622 9.475429
vt 0.375000 0.000000
vt 0.625000 0.000000
vt 0.625000 0.250000
vt 0.375000 0.166667
vt 0.375000 0.250000
vt 0.375000 0.312500
vt 0.625000 0.500000
vt 0.375000 0.375000
vt 0.375000 0.437500
vt 0.375000 0.500000
vt 0.375000 0.583333
vt 0.375000 0.666667
vt 0.375000 0.750000
vt 0.625000 0.750000
vt 0.375000 0.812500
vt 0.500000 0.812500
vt 0.375000 0.875000
vt 0.500000 0.875000
vt 0.625000 0.875000
vt 0.375000 0.937500
vt 0.375000 1.000000
vt 0.625000 0.937500
vt 0.625000 1.000000
vt 0.875000 0.000000
vt 0.750000 0.000000
vt 0.687500 0.000000
vt 0.875000 0.250000
vt 0.125000 0.000000
vt 0.187500 0.000000
vt 0.250000 0.000000
vt 0.312500 0.000000
vt 0.125000 0.083333
vt 0.187500 0.083333
vt 0.250000 0.083333
vt 0.312500 0.083333
vt 0.125000 0.166667
vt 0.187500 0.166667
vt 0.250000 0.166667
vt 0.312500 0.166667
vt 0.125000 0.250000
vt 0.187500 0.250000
vt 0.250000 0.250000
vt 0.312500 0.250000
vt 0.001992 0.001676
vt 0.320924 0.001676
vt 0.001992 0.418790
vt 0.320924 0.418790
vt 0.358173 0.741714
vt 0.358173 0.422781
vt 0.675023 0.741714
vt 0.675023 0.422781
vt 0.327662 0.001676
vt 0.646594 0.001676
vt 0.327662 0.418790
vt 0.646594 0.418790
vt 0.035188 0.741714
vt 0.035188 0.422781
vt 0.352038 0.422781
vt 0.352038 0.741714
vt 0.653137 0.001676
vt 0.969987 0.001676
vt 0.969987 0.418790
vt 0.653137 0.418790
vt 0.681158 0.422781
vt 0.998008 0.422781
vt 0.681158 0.839895
vt 0.839583 0.700857
vt 0.998008 0.839895
vt 0.375000 0.000000
vt 0.625000 0.000000
vt 0.625000 0.250000
vt 0.375000 0.250000
vt 0.625000 0.500000
vt 0.375000 0.500000
vt 0.375000 0.750000
vt 0.625000 0.750000
vt 0.375000 0.875000
vt 0.375000 1.000000
vt 0.625000 1.000000
vt 0.875000 0.000000
vt 0.875000 0.250000
vt 0.250000 0.000000
vt 0.125000 0.250000
vt 0.250000 0.166667
vt 0.125000 0.000000
vn 0.999383 0.030169 -0.017992
vn 0.999120 0.041944 0.000000
vn 0.999305 0.022452 -0.029766
vn 0.997953 0.000000 -0.063953
vn 0.997953 0.000000 -0.063953
vn 0.096206 0.995342 -0.006165
vn 0.005156 0.999626 -0.026845
vn 0.022050 0.999507 -0.022368
vn -0.005925 0.999731 -0.022447
vn -0.033499 0.999411 -0.007409
vn -0.054520 0.998388 0.015805
vn 0.000000 1.000000 0.000000
vn -1.000000 0.000000 0.000000
vn -1.000000 0.000000 0.000000
vn -1.000000 0.000000 0.000000
vn -1.000000 0.000000 0.000000
vn -1.000000 0.000000 0.000000
vn -1.000000 0.000000 0.000000
vn 0.000000 -1.000000 0.000000
vn 0.000000 -1.000000 0.000000
vn 0.000000 -1.000000 0.000000
vn 0.000000 -1.000000 0.000000
vn 0.000000 -1.000000 0.000000
vn 0.000000 -1.000000 0.000000
vn 0.000000 -1.000000 0.000000
vn 0.000000 -1.000000 0.000000
vn 0.000000 -1.000000 0.000000
vn 0.000000 -1.000000 0.000000
vn 0.000000 -1.000000 0.000000
vn 0.000000 0.000000 -1.000000
vn 0.000000 0.000000 -1.000000
vn 0.000000 0.000000 -1.000000
vn 0.000000 0.000000 -1.000000
vn 0.000000 0.000000 -1.000000
vn 0.000000 0.000000 -1.000000
vn 0.000000 0.000000 1.000000
vn -0.022509 -0.051336 0.998428
vn -0.112555 -0.025810 0.993310
vn 0.001602 0.003724 0.999992
vn 0.022477 -0.025872 0.999413
vn -0.014130 -0.026897 0.999538
vn -0.022509 -0.051336 0.998428
vn 0.001403 -0.040233 0.999189
vn 0.058434 -0.043777 0.997331
vn -0.005977 0.029679 0.999542
vn -0.052443 0.011046 0.998563
vn -0.074776 -0.001758 0.997199
vn 0.084634 0.032513 0.995882
vn 0.120669 0.017350 0.992541
vn 0.006520 -0.007552 0.999950
vn -0.030167 0.023029 0.999280
vn -0.001047 0.079044 0.996871
vn 0.022456 0.050465 0.998473
vn 0.000001 0.000000 1.000000
vn 0.903026 0.026279 0.428782
vn 0.893429 0.022216 0.448654
vn 0.838490 0.001669 0.544915
vn 0.833563 0.000000 0.552424
vn 0.023843 0.999591 0.015801
vn 0.027957 0.999609 0.000928
vn 0.058815 0.992030 -0.111436
vn 0.066761 0.987813 -0.140601
vn -0.903337 0.000000 -0.428931
vn -0.903337 0.000000 -0.428931
vn -0.903337 0.000000 -0.428931
vn -0.903337 0.000000 -0.428931
vn 0.000000 -1.000000 0.000000
vn 0.000000 -1.000000 0.000000
vn 0.000000 -1.000000 0.000000
vn 0.000000 -1.000000 0.000000
vn 0.428929 0.000000 -0.903338
vn 0.428929 0.000000 -0.903338
vn 0.428929 0.000000 -0.903338
vn 0.428930 0.000000 -0.903338
vn -0.428929 0.000000 0.903338
vn -0.463264 -0.008286 0.886182
vn -0.437272 -0.046354 0.898134
vn -0.454087 -0.017742 0.890781
vn -0.559337 -0.105417 0.822210
vn 0.862960 0.002823 0.505264
vn 0.865778 0.000000 0.500428
vn 0.858545 0.007179 0.512688
vn 0.854708 0.010901 0.518995
vn -0.050324 0.994465 0.092233
vn -0.043786 0.994776 0.092214
vn -0.045683 0.994690 0.092220
vn -0.055352 0.994197 0.092245
vn -0.944075 0.058370 -0.324522
vn -0.931093 0.037379 -0.362862
vn -0.915144 0.014944 -0.402851
vn -0.903338 0.000000 -0.428929
vn 0.000000 -1.000000 -0.000000
vn -0.004362 -0.997862 0.065205
vn 0.167736 -0.985345 0.030995
vn 0.175356 -0.982107 0.068677
vn -0.034783 -0.996707 0.073253
vn 0.428933 0.000000 -0.903336
vn 0.428933 0.000000 -0.903336
vn 0.428933 0.000000 -0.903336
vn 0.428933 0.000000 -0.903336
vn -0.298212 0.063431 0.952390
vn -0.124120 0.075546 0.989387
vn -0.387757 0.009352 0.921714
vn -0.435509 0.017552 0.900013
vn -0.428369 0.050950 0.902166
vn -0.461264 -0.014083 0.887151
s 1
g fridge
usemtl initialShadingGroup
f 19/1/1 1/2/2 2/3/3
f 19/1/1 2/3/3 3/4/4
f 3/4/4 2/3/3 4/5/5
s 2
f 4/5/6 2/3/7 5/6/8
f 5/6/8 2/3/7 21/7/9
f 5/6/8 21/7/9 6/8/10
f 6/8/10 21/7/9 7/9/11
f 7/9/11 21/7/9 8/10/12
s 3
f 8/10/13 21/7/14 9/11/15
f 9/11/15 21/7/14 10/12/16
f 10/12/16 21/7/14 11/13/17
f 11/13/17 21/7/14 12/14/18
s 4
f 11/13/19 12/14/20 13/15/21
f 13/15/21 12/14/20 14/16/22
f 13/15/21 14/16/22 15/17/23
f 15/17/23 14/16/22 16/18/24
f 14/16/22 12/14/20 16/18/24
f 16/18/24 12/14/20 17/19/25
f 15/17/23 16/18/24 18/20/26
f 18/20/26 16/18/24 19/21/27
f 16/18/24 17/19/25 19/21/27
f 19/21/27 17/19/25 20/22/28
f 19/21/27 20/22/28 1/23/29
s 5
f 17/25/30 12/24/31 21/27/32
f 20/26/33 17/25/30 21/27/32
f 1/2/34 20/26/33 2/3/35
f 2/3/35 20/26/33 21/27/32
s 6
f 11/28/36 13/29/37 10/32/38
f 10/32/38 13/29/37 22/33/39
f 13/29/37 15/30/40 22/33/39
f 22/33/39 15/30/40 23/34/41
f 15/30/40 18/31/42 23/34/41
f 23/34/41 18/31/42 24/35/43
f 18/31/42 19/1/44 24/35/43
f 10/32/38 22/33/39 9/36/45
f 9/36/45 22/33/39 25/37/46
f 22/33/39 23/34/41 25/37/46
f 25/37/46 23/34/41 26/38/47
f 23/34/41 24/35/43 26/38/47
f 26/38/47 24/35/43 27/39/48
f 24/35/43 19/1/44 27/39/48
f 27/39/48 19/1/44 3/4/49
f 9/36/45 25/37/46 8/40/50
f 8/40/50 25/37/46 7/41/51
f 25/37/46 26/38/47 7/41/51
f 7/41/51 26/38/47 6/42/52
f 26/38/47 27/39/48 6/42/52
f 6/42/52 27/39/48 5/43/53
f 27/39/48 3/4/49 5/43/53
f 5/43/53 3/4/49 4/5/54
s 7
f 35/44/55 34/45/56 28/46/57
f 28/46/57 34/45/56 29/47/58
s 8
f 28/48/59 29/49/60 31/50/61
f 31/50/61 29/49/60 30/51/62
s 9
f 31/52/63 30/53/64 32/54/65
f 32/54/65 30/53/64 33/55/66
s 10
f 32/56/67 33/57/68 34/58/69
f 32/56/67 34/58/69 35/59/70
s 11
f 34/60/71 33/61/72 30/62/73
f 29/63/74 34/60/71 30/62/73
s 12
f 32/64/75 35/65/76 31/66/77
f 31/66/77 35/65/76 36/67/78
f 36/67/78 35/65/76 28/68/79
f 31/66/77 36/67/78 28/68/79
s 13
usemtl lambert5SG
f 43/69/80 37/70/81 38/71/82
f 43/69/80 38/71/82 46/72/83
s 14
f 46/72/84 38/71/85 44/73/86
f 46/72/84 44/73/86 39/74/87
s 15
f 39/74/88 44/73/89 40/75/90
f 40/75/90 44/73/89 41/76/91
s 16
f 40/75/92 41/76/93 42/77/94
f 42/77/94 41/76/93 43/78/95
f 43/78/95 41/76/93 37/79/96
s 17
f 37/70/97 41/80/98 38/71/99
f 38/71/99 41/80/98 44/81/100
s 18
f 42/82/101 43/69/102 39/83/103
f 39/83/103 43/69/102 45/84/104
f 40/85/105 42/82/101 39/83/103
f 45/84/104 43/69/102 46/72/106
f 45/84/104 46/72/106 39/83/103
